<?xml version="1.0" encoding="utf-8"?>
<!-- Generator: Adobe Illustrator 18.0.0, SVG Export Plug-In . SVG Version: 6.00 Build 0)  -->
<!DOCTYPE svg PUBLIC "-//W3C//DTD SVG 1.1//EN" "http://www.w3.org/Graphics/SVG/1.1/DTD/svg11.dtd">
<svg version="1.1" id="Layer_1" xmlns="http://www.w3.org/2000/svg" xmlns:xlink="http://www.w3.org/1999/xlink" x="0px" y="0px"
	 viewBox="0 0 1100 1100" enable-background="new 0 0 1100 1100" xml:space="preserve">
<g>
	<path fill="#010101" d="M166.3,930.3c69.7,0,113.8-37.3,113.8-98.1V284.5H390v569.2c0,120.7-114.8,178.6-223.8,178.6V930.3z"/>
	<path fill="#CB2026" d="M335.1,67.6c39.3,0,71.6,32.4,71.6,71.6c0,39.3-32.4,71.6-71.6,71.6c-39.3,0-71.6-32.4-71.6-71.6
		C263.4,100,295.8,67.6,335.1,67.6z"/>
	<path fill="#010101" d="M797.3,372.9c-11.8-3.9-31.4-5.9-54-5.9c-57.9,0-101.1,13.7-125.6,29.4v378.8H507.8V284.5h64.8l17.7,39.3
		c36.3-29.4,91.3-51,155.1-51c20.6,0,38.3,2.9,52,5.9V372.9z"/>
	<path fill="#010101" d="M862.1,643.7c39.3,0,71.6,32.4,71.6,71.6c0,39.3-32.4,71.6-71.6,71.6c-39.3,0-71.7-32.4-71.7-71.6
		C790.5,676.1,822.9,643.7,862.1,643.7z"/>
</g>
</svg>
