<?xml version="1.0" encoding="utf-8"?>
<!-- Generator: Adobe Illustrator 16.0.0, SVG Export Plug-In . SVG Version: 6.00 Build 0)  -->
<!DOCTYPE svg PUBLIC "-//W3C//DTD SVG 1.1//EN" "http://www.w3.org/Graphics/SVG/1.1/DTD/svg11.dtd">
<svg version="1.1" id="Layer_1" xmlns="http://www.w3.org/2000/svg" xmlns:xlink="http://www.w3.org/1999/xlink" x="0px" y="0px"
	 width="413.212px" height="244.976px" viewBox="167.787 205.267 413.212 244.976"
	 enable-background="new 167.787 205.267 413.212 244.976" xml:space="preserve">
<g>
	<path fill="#FFFFFF" d="M306.836,360.305c12.523,0,20.462-6.705,20.462-17.635v-98.422h19.753v102.297
		c0,21.695-20.636,32.104-40.215,32.104V360.305z"/>
	<path fill="#CC0000" d="M337.174,205.267c7.057,0,12.878,5.821,12.878,12.876s-5.821,12.875-12.878,12.875
		c-7.054,0-12.875-5.82-12.875-12.875S330.12,205.267,337.174,205.267z"/>
	<path fill="#FFFFFF" d="M420.25,260.121c-2.115-0.705-5.646-1.057-9.7-1.057c-10.405,0-18.169,2.468-22.575,5.291v68.083h-19.756
		v-88.188h11.642l3.175,7.054c6.526-5.291,16.403-9.172,27.867-9.172c3.702,0,6.881,0.53,9.349,1.06L420.25,260.121L420.25,260.121z
		"/>
	<path fill="#FFFFFF" d="M431.895,308.803c7.057,0,12.878,5.818,12.878,12.875c0,7.059-5.821,12.877-12.878,12.877
		c-7.054,0-12.877-5.817-12.877-12.877C419.018,314.621,424.841,308.803,431.895,308.803z"/>
	<g>
		<path fill="#FFFFFF" d="M167.787,448.622c4.5,0,8.28-1.38,8.28-6.06v-37.619h1.8v37.259c0,5.398-3.36,8.04-10.08,8.04V448.622z
			 M176.966,394.145c0.96,0,1.8,0.84,1.8,1.799c0,1.021-0.84,1.802-1.8,1.802c-1.02,0-1.8-0.78-1.8-1.802
			C175.167,394.984,175.946,394.145,176.966,394.145z"/>
		<path fill="#FFFFFF" d="M189.746,427.022c0,5.279,2.94,6.6,7.919,6.6c4.2,0,7.8-0.779,10.5-2.46v-26.219h1.92v29.999h-0.9
			l-0.84-2.341c-2.64,1.681-7.26,2.641-10.68,2.641c-7.02,0-9.839-2.399-9.839-8.399v-21.899h1.92V427.022z"/>
		<path fill="#FFFFFF" d="M238.825,412.863c0-5.279-2.94-6.6-7.92-6.6c-4.2,0-7.799,0.778-10.5,2.459v26.22h-1.92v-29.999h0.9
			l0.84,2.34c2.64-1.68,7.26-2.641,10.679-2.641c7.02,0,9.84,2.399,9.84,8.399v21.899h-1.92L238.825,412.863L238.825,412.863z"/>
		<path fill="#FFFFFF" d="M251.486,394.145c0.96,0,1.8,0.84,1.8,1.799c0,1.021-0.84,1.802-1.8,1.802c-1.02,0-1.8-0.78-1.8-1.802
			C249.686,394.984,250.466,394.145,251.486,394.145z M255.146,435.242c-3.18,0-4.56-1.439-4.56-4.38v-25.919h1.8v25.799
			c0,2.28,0.6,3.061,2.76,3.061V435.242z"/>
		<path fill="#FFFFFF" d="M275.005,404.645c10.5,0,12.36,6.479,12.36,15.3c0,8.818-1.86,15.299-12.36,15.299
			s-12.36-6.479-12.36-15.299C262.645,411.123,264.505,404.645,275.005,404.645z M275.005,433.622c9.419,0,10.5-6.119,10.5-13.679
			c0-7.562-1.08-13.68-10.5-13.68s-10.5,6.118-10.5,13.68C264.505,427.503,265.585,433.622,275.005,433.622z"/>
		<path fill="#FFFFFF" d="M310.405,406.443c-0.84-0.119-1.8-0.18-2.82-0.18c-4.199,0-7.8,0.778-10.499,2.459v26.22h-1.92v-29.999
			h0.899l0.84,2.34c2.641-1.68,7.26-2.641,10.68-2.641c1.021,0,1.98,0.061,2.82,0.182V406.443L310.405,406.443z"/>
		<path fill="#FFFFFF" d="M338.424,404.645c2.641,0,5.939,0.42,8.34,1.199v1.619c-2.221-0.6-4.5-1.199-8.34-1.199
			c-8.938,0-10.56,6.601-10.56,13.681c0,7.079,1.62,13.679,10.56,13.679c3.84,0,6.119-0.6,8.34-1.199v1.619
			c-2.399,0.78-5.699,1.2-8.34,1.2c-9.96,0-12.42-6.359-12.42-15.299C326.004,411.004,328.464,404.645,338.424,404.645z"/>
		<path fill="#FFFFFF" d="M365.723,404.645c10.5,0,12.36,6.479,12.36,15.3c0,8.818-1.86,15.299-12.36,15.299
			c-10.499,0-12.358-6.479-12.358-15.299C353.364,411.123,355.224,404.645,365.723,404.645z M365.723,433.622
			c9.42,0,10.5-6.119,10.5-13.679c0-7.562-1.08-13.68-10.5-13.68c-9.419,0-10.499,6.118-10.499,13.68
			C355.224,427.503,356.304,433.622,365.723,433.622z"/>
		<path fill="#FFFFFF" d="M406.223,412.863c0-5.279-2.938-6.6-7.919-6.6c-4.198,0-7.8,0.778-10.499,2.459v26.22h-1.92v-29.999h0.899
			l0.84,2.34c2.641-1.68,7.26-2.641,10.68-2.641c7.02,0,9.839,2.399,9.839,8.399v21.899h-1.92V412.863L406.223,412.863z"/>
		<path fill="#FFFFFF" d="M434.062,426.902c0-4.38-1.38-5.879-8.4-6.72c-7.918-0.961-9.719-2.819-9.719-7.5
			c0-4.62,2.641-8.04,10.858-8.04c2.642,0,5.939,0.42,8.34,1.2v1.619c-2.221-0.601-4.5-1.198-8.34-1.198
			c-6.899,0-9.059,2.34-9.059,6.419c0,4.319,1.979,5.16,8.338,5.939c7.801,0.96,9.781,2.88,9.781,8.22
			c0,4.319-2.58,8.399-11.761,8.399c-2.641,0-5.938-0.42-8.34-1.2v-1.619c2.22,0.601,4.5,1.199,8.34,1.199
			C431.902,433.622,434.062,430.562,434.062,426.902z"/>
		<path fill="#FFFFFF" d="M444.982,427.022c0,5.279,2.94,6.6,7.92,6.6c4.2,0,7.801-0.779,10.5-2.46v-26.219h1.92v29.999h-0.9
			l-0.84-2.341c-2.639,1.681-7.26,2.641-10.68,2.641c-7.021,0-9.84-2.399-9.84-8.399v-21.899h1.92V427.022L444.982,427.022z"/>
		<path fill="#FFFFFF" d="M480.023,435.242c-3.183,0-4.562-1.439-4.562-4.38v-40.919h1.799v40.799c0,2.28,0.603,3.061,2.763,3.061
			V435.242z"/>
		<path fill="#FFFFFF" d="M501.922,435.242h-0.721c-6.719,0-10.078-2.641-10.078-8.039v-20.641h-5.701v-1.021l5.701-0.659v-8.939
			l1.799-0.239v9.239h10.26v1.619h-10.26v21.119c0,4.681,3.779,6.12,8.279,6.12h0.721V435.242z"/>
		<path fill="#FFFFFF" d="M512.963,394.145c0.959,0,1.799,0.84,1.799,1.799c0,1.021-0.84,1.802-1.799,1.802
			c-1.021,0-1.801-0.78-1.801-1.802C511.162,394.984,511.941,394.145,512.963,394.145z M516.623,435.242
			c-3.182,0-4.561-1.439-4.561-4.38v-25.919h1.799v25.799c0,2.28,0.602,3.061,2.762,3.061V435.242L516.623,435.242z"/>
		<path fill="#FFFFFF" d="M545.061,412.863c0-5.279-2.938-6.6-7.92-6.6c-4.198,0-7.799,0.778-10.498,2.459v26.22h-1.92v-29.999
			h0.898l0.84,2.34c2.641-1.68,7.26-2.641,10.68-2.641c7.021,0,9.841,2.399,9.841,8.399v21.899h-1.92L545.061,412.863
			L545.061,412.863z"/>
		<path fill="#FFFFFF" d="M560.002,425.103c-1.262,0.78-2.221,1.801-2.221,3.48c0,2.039,1.799,2.46,3.24,2.64l12.657,1.74
			c5.281,0.72,7.32,3.18,7.32,7.561c0,6.959-7.619,9.72-15.84,9.72c-8.34,0-13.56-2.102-13.56-8.521c0-4.919,4.08-7.919,8.101-9.118
			c-2.521-0.421-3.66-1.801-3.66-4.021c0-1.92,1.199-3.181,2.52-4.08c-3.118-1.74-4.198-4.979-4.198-9.239
			c0-6.479,2.58-10.619,10.92-10.619c1.319,0,2.459,0.119,3.539,0.299h10.319v1.621l-6.541-0.121
			c2.642,1.802,3.603,4.921,3.603,8.82c0,6.479-2.58,10.619-10.92,10.619C563.121,425.883,561.441,425.643,560.002,425.103z
			 M565.16,448.622c7.201,0,13.979-2.16,13.979-8.1c0-3.602-1.381-5.4-5.76-6l-11.16-1.5c-3.6,1.02-8.76,3.42-8.76,8.698
			C553.461,447.062,557.602,448.622,565.16,448.622z M556.102,415.264c0,4.739,1.38,9.061,9.181,9.061c7.799,0,9.18-4.32,9.18-9.061
			s-1.381-9.061-9.18-9.061C557.48,406.203,556.102,410.523,556.102,415.264z"/>
	</g>
</g>
</svg>
